<?xml version="1.0" encoding="UTF-8"?>
<svg xmlns="http://www.w3.org/2000/svg" id="Layer_1" data-name="Layer 1" viewBox="0 0 24 24">
  <path d="m23.275,4.005l-3.237-3.265c-.364-.368-1.038-.74-1.775-.74H7.5C5.019,0,3,2.019,3,4.5v12c0,2.481,2.019,4.5,4.5,4.5h12c2.481,0,4.5-2.019,4.5-4.5V5.766c0-.665-.258-1.29-.725-1.76ZM9,1h9v4.5c0,.276-.225.5-.5.5h-8c-.275,0-.5-.224-.5-.5V1Zm14,15.5c0,1.93-1.57,3.5-3.5,3.5H7.5c-1.93,0-3.5-1.57-3.5-3.5V4.5c0-1.93,1.57-3.5,3.5-3.5h.5v4.5c0,.827.673,1.5,1.5,1.5h8c.827,0,1.5-.673,1.5-1.5V1.195c.119.067.23.151.327.249l3.237,3.266s0,0,0,0c.28.282.435.657.435,1.056v10.734Zm-3,7c0,.276-.224.5-.5.5H7.5c-4.136,0-7.5-3.364-7.5-7.5V4.5c0-.276.224-.5.5-.5s.5.224.5.5v12c0,3.584,2.916,6.5,6.5,6.5h12c.276,0,.5.224.5.5Zm-6.5-13.5c-1.93,0-3.5,1.57-3.5,3.5s1.57,3.5,3.5,3.5,3.5-1.57,3.5-3.5-1.57-3.5-3.5-3.5Zm0,6c-1.379,0-2.5-1.122-2.5-2.5s1.121-2.5,2.5-2.5,2.5,1.122,2.5,2.5-1.121,2.5-2.5,2.5Z"/>
</svg>
